<svg width="85" height="21" viewBox="0 0 85 21" fill="none" xmlns="http://www.w3.org/2000/svg">
<rect x="0.5" y="0.5" width="84" height="20" rx="4.5" stroke="#EA4A09"/>
<path d="M16.162 16V5.64H22.504V6.606H17.24V10.232H21.846V11.198H17.24V15.034H22.574V16H16.162ZM24.5813 16V8.58H25.6313V9.812H25.7013C25.7666 9.672 25.8833 9.49467 26.0513 9.28C26.2193 9.056 26.4526 8.86 26.7513 8.692C27.0499 8.524 27.4279 8.44 27.8853 8.44C28.4359 8.44 28.9026 8.566 29.2853 8.818C29.6679 9.07 29.9573 9.41067 30.1533 9.84C30.3586 10.2693 30.4613 10.7547 30.4613 11.296V16H29.4253V11.352C29.4253 10.7827 29.2713 10.3113 28.9633 9.938C28.6646 9.55533 28.2213 9.364 27.6333 9.364C27.1666 9.364 26.7839 9.48533 26.4853 9.728C26.1959 9.97067 25.9813 10.2833 25.8413 10.666C25.7013 11.0487 25.6313 11.4407 25.6313 11.842V16H24.5813ZM40.3702 16.14C39.5675 16.14 38.8629 15.9907 38.2562 15.692C37.6495 15.384 37.1455 14.978 36.7442 14.474C36.3429 13.9607 36.0395 13.3913 35.8342 12.766C35.6382 12.1313 35.5402 11.4827 35.5402 10.82C35.5402 10.1573 35.6382 9.50867 35.8342 8.874C36.0395 8.23933 36.3429 7.67 36.7442 7.166C37.1455 6.65267 37.6495 6.24667 38.2562 5.948C38.8629 5.64933 39.5675 5.5 40.3702 5.5C41.0235 5.5 41.5835 5.584 42.0502 5.752C42.5262 5.92 42.9229 6.13933 43.2402 6.41C43.5575 6.68067 43.8142 6.96533 44.0102 7.264C44.2062 7.56267 44.3509 7.84733 44.4442 8.118C44.5469 8.38867 44.6122 8.608 44.6402 8.776C44.6775 8.944 44.6962 9.028 44.6962 9.028H43.6042C43.6042 9.028 43.5855 8.944 43.5482 8.776C43.5109 8.608 43.4315 8.398 43.3102 8.146C43.1889 7.894 43.0069 7.642 42.7642 7.39C42.5309 7.138 42.2182 6.928 41.8262 6.76C41.4435 6.592 40.9582 6.508 40.3702 6.508C39.7542 6.508 39.2129 6.62933 38.7462 6.872C38.2795 7.11467 37.8875 7.446 37.5702 7.866C37.2622 8.27667 37.0289 8.73867 36.8702 9.252C36.7115 9.756 36.6322 10.2787 36.6322 10.82C36.6322 11.352 36.7115 11.8747 36.8702 12.388C37.0289 12.9013 37.2622 13.368 37.5702 13.788C37.8875 14.1987 38.2795 14.5253 38.7462 14.768C39.2129 15.0107 39.7542 15.132 40.3702 15.132C40.9582 15.132 41.4435 15.048 41.8262 14.88C42.2182 14.712 42.5309 14.502 42.7642 14.25C43.0069 13.998 43.1889 13.746 43.3102 13.494C43.4315 13.242 43.5109 13.032 43.5482 12.864C43.5855 12.6867 43.6042 12.598 43.6042 12.598H44.6962C44.6962 12.598 44.6775 12.6867 44.6402 12.864C44.6122 13.032 44.5469 13.2513 44.4442 13.522C44.3509 13.7833 44.2062 14.068 44.0102 14.376C43.8142 14.6747 43.5575 14.9593 43.2402 15.23C42.9229 15.5007 42.5262 15.72 42.0502 15.888C41.5835 16.056 41.0235 16.14 40.3702 16.14ZM49.9263 16.14C49.3383 16.14 48.8203 16.0327 48.3723 15.818C47.9336 15.6033 47.5603 15.314 47.2523 14.95C46.9536 14.586 46.7296 14.1753 46.5803 13.718C46.4309 13.2513 46.3563 12.7753 46.3563 12.29C46.3563 11.7953 46.4309 11.3193 46.5803 10.862C46.7296 10.4047 46.9536 9.994 47.2523 9.63C47.5603 9.266 47.9336 8.97667 48.3723 8.762C48.8203 8.54733 49.3383 8.44 49.9263 8.44C50.5143 8.44 51.0323 8.54733 51.4803 8.762C51.9283 8.97667 52.3016 9.266 52.6003 9.63C52.8989 9.994 53.1229 10.4047 53.2723 10.862C53.4309 11.3193 53.5103 11.7953 53.5103 12.29C53.5103 12.7753 53.4309 13.2513 53.2723 13.718C53.1229 14.1753 52.8989 14.586 52.6003 14.95C52.3016 15.314 51.9283 15.6033 51.4803 15.818C51.0323 16.0327 50.5143 16.14 49.9263 16.14ZM49.9263 15.202C50.4769 15.202 50.9389 15.062 51.3123 14.782C51.6856 14.502 51.9656 14.1427 52.1523 13.704C52.3483 13.256 52.4463 12.7847 52.4463 12.29C52.4463 11.7953 52.3483 11.3287 52.1523 10.89C51.9656 10.442 51.6856 10.078 51.3123 9.798C50.9389 9.518 50.4769 9.378 49.9263 9.378C49.3756 9.378 48.9136 9.518 48.5403 9.798C48.1669 10.078 47.8869 10.442 47.7003 10.89C47.5136 11.3287 47.4203 11.7953 47.4203 12.29C47.4203 12.7847 47.5136 13.256 47.7003 13.704C47.8869 14.1427 48.1669 14.502 48.5403 14.782C48.9136 15.062 49.3756 15.202 49.9263 15.202ZM57.847 16.14C57.1097 16.14 56.5217 15.902 56.083 15.426C55.6443 14.95 55.425 14.2873 55.425 13.438V8.58H56.475V13.396C56.475 13.9747 56.6197 14.4227 56.909 14.74C57.1983 15.0573 57.595 15.216 58.099 15.216C58.5937 15.216 58.9903 15.0853 59.289 14.824C59.5877 14.5533 59.8023 14.2173 59.933 13.816C60.073 13.4053 60.143 12.9807 60.143 12.542V8.58H61.193V16H60.143V14.782H60.073C60.0077 14.9127 59.891 15.09 59.723 15.314C59.555 15.5287 59.3217 15.72 59.023 15.888C58.7243 16.056 58.3323 16.14 57.847 16.14ZM63.2863 16V8.58H64.3363V9.546H64.3923C64.5417 9.24733 64.7703 8.99067 65.0783 8.776C65.3863 8.552 65.8157 8.44 66.3663 8.44C66.5437 8.44 66.6977 8.44933 66.8283 8.468C66.9683 8.48667 67.0383 8.496 67.0383 8.496V9.504C67.0383 9.504 66.9637 9.49467 66.8143 9.476C66.665 9.45733 66.5063 9.448 66.3383 9.448C65.9557 9.448 65.6103 9.52733 65.3023 9.686C65.0037 9.83533 64.7657 10.0967 64.5883 10.47C64.4203 10.834 64.3363 11.3333 64.3363 11.968V16H63.2863ZM71.0977 16.14C70.5377 16.14 70.0757 16.0607 69.7117 15.902C69.357 15.7433 69.0723 15.5473 68.8577 15.314C68.6523 15.0807 68.503 14.8473 68.4097 14.614C68.3163 14.3807 68.2557 14.1847 68.2277 14.026C68.1997 13.8673 68.1857 13.788 68.1857 13.788H69.2637C69.2637 13.788 69.2777 13.8627 69.3057 14.012C69.3337 14.152 69.4037 14.32 69.5157 14.516C69.637 14.7027 69.8237 14.8707 70.0757 15.02C70.3277 15.16 70.673 15.23 71.1117 15.23C71.5877 15.23 71.9657 15.1087 72.2457 14.866C72.5257 14.6233 72.6657 14.3247 72.6657 13.97C72.6657 13.634 72.549 13.3727 72.3157 13.186C72.0917 12.9993 71.7883 12.864 71.4057 12.78L70.4257 12.556C70.0523 12.4627 69.7117 12.3367 69.4037 12.178C69.0957 12.0193 68.8483 11.8093 68.6617 11.548C68.475 11.2773 68.3817 10.946 68.3817 10.554C68.3817 9.92867 68.6103 9.42 69.0677 9.028C69.525 8.636 70.1223 8.44 70.8597 8.44C71.3543 8.44 71.7603 8.51467 72.0777 8.664C72.4043 8.804 72.661 8.98133 72.8477 9.196C73.0437 9.41067 73.1837 9.62533 73.2677 9.84C73.361 10.0453 73.4217 10.2227 73.4497 10.372C73.4777 10.512 73.4917 10.582 73.4917 10.582H72.4697C72.4697 10.582 72.451 10.5213 72.4137 10.4C72.3857 10.2693 72.3203 10.1247 72.2177 9.966C72.1243 9.798 71.9657 9.65333 71.7417 9.532C71.527 9.40133 71.233 9.336 70.8597 9.336C70.3743 9.336 70.0103 9.45267 69.7677 9.686C69.5343 9.91933 69.4177 10.1853 69.4177 10.484C69.4177 10.7733 69.5203 11.002 69.7257 11.17C69.9403 11.338 70.2297 11.464 70.5937 11.548L71.5877 11.786C72.213 11.9353 72.7217 12.1827 73.1137 12.528C73.5057 12.864 73.7017 13.3307 73.7017 13.928C73.7017 14.3293 73.5943 14.698 73.3797 15.034C73.1743 15.37 72.8757 15.6407 72.4837 15.846C72.101 16.042 71.639 16.14 71.0977 16.14Z" fill="#EA4A09"/>
</svg>
