<svg width="85" height="21" viewBox="0 0 85 21" fill="none" xmlns="http://www.w3.org/2000/svg">
<rect x="0.5" y="0.5" width="84" height="20" rx="4.5" stroke="#00933B"/>
<path d="M18.962 16V6.606H15.602V5.64H23.4V6.606H20.04V16H18.962ZM27.0643 16.14C26.4669 16.14 25.9489 16.0327 25.5103 15.818C25.0716 15.594 24.7123 15.2953 24.4323 14.922C24.1523 14.5487 23.9423 14.1333 23.8023 13.676C23.6716 13.2187 23.6063 12.7567 23.6063 12.29C23.6063 11.8233 23.6716 11.3613 23.8023 10.904C23.9423 10.4467 24.1523 10.0313 24.4323 9.658C24.7123 9.28467 25.0623 8.99067 25.4823 8.776C25.9116 8.552 26.4203 8.44 27.0083 8.44C27.6243 8.44 28.1703 8.58467 28.6463 8.874C29.1316 9.16333 29.5096 9.59267 29.7803 10.162C30.0603 10.722 30.2003 11.4267 30.2003 12.276V12.584H24.6703C24.6889 13.06 24.7916 13.4987 24.9783 13.9C25.1743 14.3013 25.4449 14.6233 25.7903 14.866C26.1449 15.1087 26.5696 15.23 27.0643 15.23C27.4749 15.23 27.8156 15.16 28.0863 15.02C28.3569 14.8707 28.5623 14.7027 28.7023 14.516C28.8516 14.32 28.9543 14.152 29.0103 14.012C29.0756 13.872 29.1083 13.802 29.1083 13.802H30.1023C30.1023 13.802 30.0789 13.8813 30.0323 14.04C29.9856 14.1893 29.9016 14.3807 29.7803 14.614C29.6589 14.8473 29.4816 15.0807 29.2483 15.314C29.0243 15.5473 28.7349 15.7433 28.3803 15.902C28.0256 16.0607 27.5869 16.14 27.0643 16.14ZM24.6843 11.744H29.1503C29.1223 11.1747 29.0056 10.7173 28.8003 10.372C28.6043 10.0173 28.3476 9.76067 28.0303 9.602C27.7129 9.44333 27.3723 9.364 27.0083 9.364C26.3456 9.364 25.8089 9.58333 25.3983 10.022C24.9876 10.4513 24.7496 11.0253 24.6843 11.744ZM32.1008 16V8.58H33.1508V9.546H33.2068C33.3561 9.24733 33.5848 8.99067 33.8928 8.776C34.2008 8.552 34.6301 8.44 35.1808 8.44C35.3581 8.44 35.5121 8.44933 35.6428 8.468C35.7828 8.48667 35.8528 8.496 35.8528 8.496V9.504C35.8528 9.504 35.7781 9.49467 35.6288 9.476C35.4794 9.45733 35.3208 9.448 35.1528 9.448C34.7701 9.448 34.4248 9.52733 34.1168 9.686C33.8181 9.83533 33.5801 10.0967 33.4028 10.47C33.2348 10.834 33.1508 11.3333 33.1508 11.968V16H32.1008ZM37.4738 16V8.58H38.5238V9.784H38.5798C38.6545 9.62533 38.7758 9.44333 38.9438 9.238C39.1118 9.02333 39.3405 8.83667 39.6298 8.678C39.9192 8.51933 40.2832 8.44 40.7218 8.44C41.2818 8.44 41.7532 8.58467 42.1358 8.874C42.5278 9.154 42.8125 9.54133 42.9898 10.036H43.0038C43.1998 9.616 43.4892 9.24733 43.8718 8.93C44.2545 8.60333 44.7678 8.44 45.4118 8.44C46.1958 8.44 46.8072 8.71067 47.2458 9.252C47.6845 9.79333 47.9038 10.5073 47.9038 11.394V16H46.8678V11.436C46.8678 10.792 46.7185 10.288 46.4198 9.924C46.1212 9.55067 45.7058 9.364 45.1738 9.364C44.7072 9.364 44.3292 9.49467 44.0398 9.756C43.7505 10.008 43.5405 10.33 43.4098 10.722C43.2792 11.114 43.2138 11.5153 43.2138 11.926V16H42.1638V11.436C42.1638 10.792 42.0192 10.288 41.7298 9.924C41.4405 9.55067 41.0252 9.364 40.4838 9.364C40.0172 9.364 39.6392 9.49467 39.3498 9.756C39.0605 10.008 38.8505 10.3347 38.7198 10.736C38.5892 11.128 38.5238 11.5247 38.5238 11.926V16H37.4738ZM50.6833 7.152C50.4686 7.152 50.2913 7.07733 50.1513 6.928C50.0113 6.77867 49.9413 6.606 49.9413 6.41C49.9413 6.20467 50.0113 6.032 50.1513 5.892C50.2913 5.74267 50.4686 5.668 50.6833 5.668C50.8886 5.668 51.0613 5.74267 51.2013 5.892C51.3506 6.032 51.4253 6.20467 51.4253 6.41C51.4253 6.61533 51.3506 6.79267 51.2013 6.942C51.0613 7.082 50.8886 7.152 50.6833 7.152ZM50.1653 16V8.58H51.2153V16H50.1653ZM53.4699 16V8.58H54.5199V9.812H54.5899C54.6553 9.672 54.7719 9.49467 54.9399 9.28C55.1079 9.056 55.3413 8.86 55.6399 8.692C55.9386 8.524 56.3166 8.44 56.7739 8.44C57.3246 8.44 57.7913 8.566 58.1739 8.818C58.5566 9.07 58.8459 9.41067 59.0419 9.84C59.2473 10.2693 59.3499 10.7547 59.3499 11.296V16H58.3139V11.352C58.3139 10.7827 58.1599 10.3113 57.8519 9.938C57.5533 9.55533 57.1099 9.364 56.5219 9.364C56.0553 9.364 55.6726 9.48533 55.3739 9.728C55.0846 9.97067 54.8699 10.2833 54.7299 10.666C54.5899 11.0487 54.5199 11.4407 54.5199 11.842V16H53.4699ZM65.2476 7.432L64.3236 7.418L65.5276 5.038H66.6336L65.2476 7.432ZM64.8276 16.14C64.2303 16.14 63.7123 16.0327 63.2736 15.818C62.835 15.594 62.4756 15.2953 62.1956 14.922C61.9156 14.5487 61.7056 14.1333 61.5656 13.676C61.435 13.2187 61.3696 12.7567 61.3696 12.29C61.3696 11.8233 61.435 11.3613 61.5656 10.904C61.7056 10.4467 61.9156 10.0313 62.1956 9.658C62.4756 9.28467 62.8256 8.99067 63.2456 8.776C63.675 8.552 64.1836 8.44 64.7716 8.44C65.3876 8.44 65.9336 8.58467 66.4096 8.874C66.895 9.16333 67.273 9.59267 67.5436 10.162C67.8236 10.722 67.9636 11.4267 67.9636 12.276V12.584H62.4336C62.4523 13.06 62.555 13.4987 62.7416 13.9C62.9376 14.3013 63.2083 14.6233 63.5536 14.866C63.9083 15.1087 64.333 15.23 64.8276 15.23C65.2383 15.23 65.579 15.16 65.8496 15.02C66.1203 14.8707 66.3256 14.7027 66.4656 14.516C66.615 14.32 66.7176 14.152 66.7736 14.012C66.839 13.872 66.8716 13.802 66.8716 13.802H67.8656C67.8656 13.802 67.8423 13.8813 67.7956 14.04C67.749 14.1893 67.665 14.3807 67.5436 14.614C67.4223 14.8473 67.245 15.0807 67.0116 15.314C66.7876 15.5473 66.4983 15.7433 66.1436 15.902C65.789 16.0607 65.3503 16.14 64.8276 16.14ZM62.4476 11.744H66.9136C66.8856 11.1747 66.769 10.7173 66.5636 10.372C66.3676 10.0173 66.111 9.76067 65.7936 9.602C65.4763 9.44333 65.1356 9.364 64.7716 9.364C64.109 9.364 63.5723 9.58333 63.1616 10.022C62.751 10.4513 62.513 11.0253 62.4476 11.744Z" fill="#00933B"/>
</svg>
